# xmcd CD database file
#
# Track frame offsets:
#	150
#	32257
#	77805
#	100223
#	155841
#	165102
#	180529
#	238893
#
# Disc length: 4048 seconds
#
# Revision: 0
# Processed by: cddbd v1.5.1PL2 Copyright (c) Steve Scherf et al.
# Submitted via: CDex 1.51
#
DISCID=540fce08
DTITLE=Miles Davis - Complete "More Black Beauty"
DYEAR=1900
DGENRE=Jazz
TTITLE0=Directions
TTITLE1=Miles Runs The Voodoo Down
TTITLE2=This
TTITLE3=It's About That Time
TTITLE4=I Tall In Love To Easily
TTITLE5=Sanctuary
TTITLE6=Spanish Key
TTITLE7=Bitches Brew - The Theme
EXTD=
EXTT0=
EXTT1=
EXTT2=
EXTT3=
EXTT4=
EXTT5=
EXTT6=
EXTT7=
PLAYORDER=
